<svg width="36" height="41" viewBox="0 0 36 41" fill="none" xmlns="http://www.w3.org/2000/svg">
<g clip-path="url(#clip0_188_8639)">
<path d="M22.1669 11.6182C23.6279 11.1188 25.1904 10.7061 26.624 10.8174L26.6513 10.8193L26.6786 10.8203C27.8965 10.848 29.0936 11.1188 30.1982 11.6133L30.666 11.8389C31.5662 12.3056 32.3749 12.9187 33.0624 13.6475C32.023 14.363 31.1326 15.2745 30.4462 16.334L30.2695 16.6182C29.4277 18.0235 28.9667 19.6169 28.9277 21.2451L28.9257 21.248V21.3252C28.9247 21.3909 28.9254 21.4567 28.9257 21.5225V21.666C28.9236 23.548 29.4561 25.3895 30.4579 26.9834L30.664 27.2988C31.6156 28.694 32.9039 29.8243 34.4033 30.5986C33.7759 32.186 32.7077 34.3332 31.3544 36.1885C30.5503 37.2909 29.6716 38.2552 28.7597 38.9395C27.8482 39.6234 26.9607 39.9851 26.1122 39.998C25.0224 39.9959 24.1549 39.6617 23.0546 39.2441C21.9658 38.831 20.6949 38.3604 19.0195 38.3604C17.3097 38.3604 15.9948 38.8089 14.8828 39.2207C13.8839 39.5906 13.1269 39.892 12.3046 39.9766L11.9472 39.999H11.9404C11.1367 40.0235 10.2498 39.6736 9.29779 38.9443C8.35112 38.2191 7.42216 37.1804 6.56244 35.9932C5.0565 33.9135 3.85008 31.5002 3.19232 29.8574L2.94525 29.2041L2.9433 29.1982L2.79291 28.7695C2.06723 26.6201 1.68631 24.3717 1.664 22.1055C1.66416 14.5529 6.71852 10.9908 11.3779 10.9131C12.4381 10.9155 13.7096 11.3034 15.0078 11.7578C15.6263 11.9743 16.2705 12.2126 16.8251 12.3877C17.3621 12.5573 17.954 12.7158 18.4716 12.7158C18.9952 12.7158 19.6241 12.5182 20.1747 12.3291C20.4732 12.2266 20.7977 12.1085 21.1279 11.9883C21.4615 11.8668 21.8074 11.7411 22.1669 11.6182ZM25.9267 1.1748C25.9012 1.74029 25.8145 2.30217 25.662 2.84961L25.5449 3.23047C25.2561 4.08849 24.8133 4.88762 24.2402 5.59277L23.9091 5.97461C22.4736 7.62643 20.8708 8.59245 19.1933 8.75879C19.2338 8.01586 19.3809 7.28053 19.6357 6.57617C19.998 5.5746 20.5668 4.65577 21.3066 3.87793L21.3144 3.86914L21.3232 3.86035C22.5435 2.51434 24.1541 1.58094 25.9267 1.1748Z" stroke="url(#paint0_linear_188_8639)" stroke-width="2"/>
</g>
<defs>
<linearGradient id="paint0_linear_188_8639" x1="18.1634" y1="0" x2="18.1634" y2="41.0005" gradientUnits="userSpaceOnUse">
<stop stop-color="#A26DFF"/>
<stop offset="1" stop-color="#4085F2"/>
</linearGradient>
<clipPath id="clip0_188_8639">
<rect width="35" height="41" fill="white" transform="translate(0.664001)"/>
</clipPath>
</defs>
</svg>
