<svg width="122" height="122" viewBox="0 0 122 122" fill="none" xmlns="http://www.w3.org/2000/svg">
<path d="M101.667 86.4166C104.581 86.4166 107.038 87.4333 109.037 89.4666C111.037 91.5 112.02 93.8722 111.986 96.5833L71.1666 111.833L35.5833 101.667V55.9166H45.4958L82.4516 69.5908C85.095 70.6413 86.4166 72.5391 86.4166 75.2841C86.4166 76.8769 85.8405 78.2663 84.6883 79.4525C83.5361 80.6386 82.0788 81.2655 80.3166 81.3333H66.0833L57.1875 77.9275L55.51 82.7058L66.0833 86.4166H101.667ZM81.3333 16.4191C84.9255 12.2508 89.5005 10.1666 95.0583 10.1666C99.6672 10.1666 103.564 11.8611 106.75 15.25C109.936 18.6388 111.63 22.5361 111.833 26.9416C111.833 30.4322 110.139 34.6005 106.75 39.4466C103.361 44.2927 100.023 48.3425 96.7358 51.5958C93.4486 54.8491 88.3144 59.6783 81.3333 66.0833C74.2844 59.6783 69.0994 54.8491 65.7783 51.5958C62.4572 48.3425 59.1191 44.2927 55.7641 39.4466C52.4091 34.6005 50.7655 30.4322 50.8333 26.9416C50.8333 22.3327 52.4769 18.4355 55.7641 15.25C59.0513 12.0644 63.0163 10.37 67.6591 10.1666C73.0813 10.1666 77.6394 12.2508 81.3333 16.4191ZM5.00195 55.9166H25.4166V111.833H5.00195V55.9166Z" fill="url(#paint0_linear_324_8047)"/>
<defs>
<linearGradient id="paint0_linear_324_8047" x1="111.987" y1="102.937" x2="30.5355" y2="-0.955588" gradientUnits="userSpaceOnUse">
<stop stop-color="#4085F2"/>
<stop offset="1" stop-color="#A26DFF"/>
</linearGradient>
</defs>
</svg>
