<svg width="122" height="122" viewBox="0 0 122 122" fill="none" xmlns="http://www.w3.org/2000/svg">
<path fill-rule="evenodd" clip-rule="evenodd" d="M102.938 38.491C100.854 38.491 99.1253 36.7627 99.1253 34.6785V28.8632C90.6514 37.149 68.8185 55.1338 27.8468 68.7928C27.4648 68.9278 27.0625 68.9965 26.6573 68.9961C25.7566 68.9894 24.8873 68.6639 24.2036 68.0774C23.5198 67.4909 23.0659 66.6813 22.9221 65.7921C22.7784 64.9028 22.9542 63.9914 23.4183 63.2194C23.8824 62.4474 24.6049 61.8646 25.4577 61.5744C65.0924 48.3476 86.2035 30.7593 93.9251 23.2461H87.6878C85.6037 23.2461 83.8753 21.5178 83.8753 19.4336C83.8753 17.3494 85.6037 15.6211 87.6878 15.6211H102.938C105.022 15.6211 106.75 17.3494 106.75 19.4336V34.6836C106.75 36.7678 105.022 38.491 102.938 38.491ZM26.6573 68.9961H26.6777H26.6268H26.6573ZM100.396 114.746C97.702 114.746 96.0753 114.746 94.4487 114.085C92.2628 113.17 90.5345 111.442 89.6195 109.256C88.9587 107.629 88.9587 106.003 88.9587 103.309V57.5586C88.9587 54.8644 88.9587 53.2378 89.6195 51.6111C90.5345 49.4253 92.2628 47.6969 94.4487 46.7819C96.0753 46.1211 97.702 46.1211 100.396 46.1211C103.09 46.1211 104.717 46.1211 106.344 46.7819C108.529 47.6969 110.258 49.4253 111.173 51.6111C111.834 53.2378 111.834 54.8644 111.834 57.5586V103.309C111.834 106.003 111.834 107.629 111.173 109.256C110.258 111.442 108.529 113.17 106.344 114.085C104.717 114.746 103.09 114.746 100.396 114.746ZM100.396 53.7461C99.0745 53.7461 97.702 53.7461 97.3462 53.8478C97.0412 53.9494 96.8378 54.2036 96.6853 54.5086C96.5837 54.8136 96.5837 56.1861 96.5837 57.5586V103.309C96.5837 104.63 96.5837 106.003 96.6853 106.359C96.787 106.664 97.0412 106.918 97.3462 107.019C98.007 107.223 102.734 107.223 103.446 107.019C103.751 106.918 103.954 106.664 104.107 106.359C104.209 106.054 104.209 104.681 104.209 103.309V57.5586C104.209 56.2369 104.209 54.8644 104.107 54.5086C104.054 54.3555 103.967 54.2165 103.853 54.102C103.738 53.9875 103.599 53.9006 103.446 53.8478C103.141 53.7461 101.769 53.7461 100.396 53.7461ZM64.8128 114.746C62.1187 114.746 60.492 114.746 58.8653 114.085C56.6795 113.17 54.9512 111.442 54.0362 109.256C53.3753 107.629 53.3753 106.003 53.3753 103.309V75.3503C53.3753 72.6561 53.3753 71.0294 54.0362 69.4028C54.9512 67.2169 56.6795 65.4886 58.8653 64.5736C60.492 63.9128 62.1187 63.9128 64.8128 63.9128C67.507 63.9128 69.1337 63.9128 70.7603 64.5736C72.9462 65.4886 74.6745 67.2169 75.5895 69.4028C76.2503 71.0294 76.2503 72.6561 76.2503 75.3503V103.309C76.2503 106.003 76.2503 107.629 75.5895 109.256C74.6745 111.442 72.9462 113.17 70.7603 114.085C69.1337 114.746 67.507 114.746 64.8128 114.746ZM64.8128 71.5378C63.4912 71.5378 62.1187 71.5378 61.7628 71.6394C61.4578 71.7411 61.2545 71.9953 61.102 72.3003C61.0003 72.6053 61.0003 73.9778 61.0003 75.3503V103.309C61.0003 104.63 61.0003 106.003 61.102 106.359C61.2037 106.664 61.4578 106.918 61.7628 107.019C62.4237 107.223 67.1512 107.223 67.8628 107.019C68.1678 106.918 68.3712 106.664 68.5237 106.359C68.6253 106.054 68.6253 104.681 68.6253 103.309V75.3503C68.6253 74.0286 68.6253 72.6561 68.5237 72.3003C68.4708 72.1472 68.3839 72.0082 68.2694 71.8937C68.1549 71.7792 68.0159 71.6923 67.8628 71.6394C67.5578 71.5378 66.1853 71.5378 64.8128 71.5378ZM23.282 114.085C24.9087 114.746 26.5353 114.746 29.2295 114.746C31.9237 114.746 33.5503 114.746 35.177 114.085C37.3628 113.17 39.0912 111.442 40.0062 109.256C40.667 107.629 40.667 106.003 40.667 103.309V88.0586C40.667 85.3644 40.667 83.7378 40.0062 82.1111C39.0912 79.9253 37.3628 78.1969 35.177 77.2819C33.5503 76.6211 31.9237 76.6211 29.2295 76.6211C26.5353 76.6211 24.9087 76.6211 23.282 77.2819C21.0962 78.1969 19.3678 79.9253 18.4528 82.1111C17.792 83.7378 17.792 85.3644 17.792 88.0586V103.309C17.792 106.003 17.792 107.629 18.4528 109.256C19.3678 111.442 21.0962 113.17 23.282 114.085ZM26.1795 84.3478C26.5353 84.2461 27.9078 84.2461 29.2295 84.2461C30.602 84.2461 31.9745 84.2461 32.2795 84.3478C32.5845 84.4494 32.8387 84.7036 32.9403 85.0086C33.042 85.3644 33.042 86.7369 33.042 88.0586V103.309C33.042 104.681 33.042 106.054 32.9403 106.359C32.7878 106.664 32.5845 106.918 32.2795 107.019C31.5678 107.223 26.8403 107.223 26.1795 107.019C26.0264 106.967 25.8874 106.88 25.7729 106.765C25.6584 106.651 25.5715 106.512 25.5187 106.359C25.417 106.003 25.417 104.63 25.417 103.309V88.0586C25.417 86.6861 25.417 85.3136 25.5187 85.0086C25.6712 84.7036 25.8745 84.4494 26.1795 84.3478Z" fill="url(#paint0_linear_324_8043)"/>
<defs>
<linearGradient id="paint0_linear_324_8043" x1="111.834" y1="106.073" x2="30.8474" y2="12.9416" gradientUnits="userSpaceOnUse">
<stop stop-color="#4085F2"/>
<stop offset="1" stop-color="#A26DFF"/>
</linearGradient>
</defs>
</svg>
