<svg width="122" height="122" viewBox="0 0 122 122" fill="none" xmlns="http://www.w3.org/2000/svg">
<g clip-path="url(#clip0_324_8033)">
<mask id="mask0_324_8033" style="mask-type:luminance" maskUnits="userSpaceOnUse" x="0" y="0" width="122" height="122">
<path d="M0 0H122V122H0V0Z" fill="white"/>
</mask>
<g mask="url(#mask0_324_8033)">
<path d="M61.3017 40.6984C61.3017 41.1676 61.1153 41.6176 60.7835 41.9493C60.4518 42.2811 60.0018 42.4674 59.5327 42.4674C59.0635 42.4674 58.6136 42.2811 58.2818 41.9493C57.95 41.6176 57.7637 41.1676 57.7637 40.6984C57.7637 40.2293 57.95 39.7793 58.2818 39.4476C58.6136 39.1158 59.0635 38.9294 59.5327 38.9294C60.0018 38.9294 60.4518 39.1158 60.7835 39.4476C61.1153 39.7793 61.3017 40.2293 61.3017 40.6984Z" fill="url(#paint0_linear_324_8033)"/>
<path d="M54.6332 5.83314C55.815 9.22626 54.7094 13.0388 51.85 15.2881L50.4013 16.5081L53.5275 18.7575L67.1763 28.67C67.9007 29.2038 68.5869 29.8138 69.1969 30.4619C74.5725 35.4563 76.1357 40.6031 76.3644 45.3306C79.3 41.9756 80.6725 37.6294 80.5582 32.2156C80.4057 24.7813 74.9157 18.91 70.3407 15.2881C68.9489 14.1903 67.9332 12.6866 67.4345 10.9856C66.9358 9.28457 66.9788 7.47051 67.5575 5.79501C68.7013 2.40189 71.9038 0.152513 75.4875 0.152513C83.1888 0.152513 91.6373 5.94751 96.7232 11.285C97.8669 10.7131 99.125 10.4081 100.459 10.4081C103.09 10.4081 105.606 11.7044 107.208 13.8394C110.372 18.1475 112.812 24.2094 114.261 31.1481C117.006 31.9869 119.217 34.2363 119.941 37.1719C124.44 55.205 118.798 70.8363 104.386 80.825V81.5113C104.386 102.633 87.6113 120.323 67.0238 121.009H66.7188C64.8402 121.012 63.0164 120.376 61.5475 119.205C60.0785 118.034 59.0518 116.398 58.6363 114.566C55.7769 114.223 52.8413 113.536 50.3632 112.24C47.7707 110.906 46.1694 108.351 45.9788 105.568C42.3283 102.969 39.2954 99.5978 37.0957 95.6938C36.4094 94.4356 36.0663 93.025 36.0663 91.5763C36.0663 90.6994 36.2188 89.8606 36.4475 89.06C23.8282 85.8956 13.115 79.1094 7.01503 70.1119C0.762527 60.9238 -0.876848 49.5244 2.21128 37.1338C2.93565 34.1981 5.10878 31.9869 7.8919 31.11C9.34065 24.1713 11.7807 18.1094 14.945 13.8013C16.5082 11.6663 19.0625 10.37 21.6932 10.37C23.0275 10.37 24.2857 10.675 25.3913 11.2469C29.9663 6.40501 36.3332 1.98251 44.9113 0.266888C49.1355 -0.404112 53.1348 1.60889 54.6332 5.83314ZM47.0082 9.15001C47.6944 8.61626 47.3513 7.62501 46.5888 7.62501V7.73939H46.3982C32.1775 10.5988 25.4294 23.1038 23.2563 28.1363C23.2206 28.2063 23.1659 28.2649 23.0985 28.3053C23.0311 28.3458 22.9536 28.3665 22.875 28.365C22.6463 28.365 22.4175 28.2125 22.4175 27.9838V18.8338C22.4175 18.3381 22.0363 17.995 21.6169 17.995C21.3882 17.995 21.1594 18.1094 21.0069 18.3381C16.8894 23.9425 14.1444 33.9694 13.9157 44.6063C13.9157 44.835 13.725 44.9494 13.5344 44.9494C13.42 44.9494 13.3057 44.9113 13.2294 44.7588C12.2569 42.9815 11.5626 41.0657 11.1707 39.0781C11.1344 38.8729 11.0263 38.6872 10.8656 38.5545C10.7049 38.4218 10.5022 38.3506 10.2938 38.3538C10.1073 38.3574 9.92725 38.4231 9.78225 38.5404C9.63725 38.6578 9.53552 38.8202 9.49315 39.0019C3.0119 64.9269 21.7427 77.6988 38.7312 81.8163C34.8213 76.5848 32.7131 70.2266 32.7227 63.6955C32.7279 57.8582 34.5055 52.16 37.82 47.3551C35.4182 43.5769 33.7483 38.5635 33.8932 31.9106C34.1219 21.1594 41.6325 13.42 47.0082 9.15001ZM63.0207 90.3563H63.0588C67.9388 90.3563 72.4757 89.0448 76.3797 86.7534C66.7302 87.6761 58.053 79.9215 58.053 70.1157C58.053 65.9525 59.4369 62.6508 61.5643 60.0583C60.8704 60.1372 60.1732 60.1843 59.475 60.1994C56.5775 60.1994 54.9 56.8825 56.6538 54.5569L62.6013 46.6269L67.1 49.4481C67.2907 49.5625 67.4813 49.6006 67.6719 49.6006C68.0913 49.6006 68.5107 49.3338 68.5107 48.8763C68.8538 44.6063 68.7394 40.3363 63.6688 35.7613C63.3257 35.38 62.9444 35.0369 62.525 34.7319L48.8763 24.8194C48.8763 24.8194 48.8763 31.8725 52.4219 35.4181L49.2308 39.2878H49.2499L42.2921 47.7516C38.5813 52.2372 36.546 57.8738 36.5352 63.6955C36.5352 74.8661 43.4358 84.5689 53.2111 88.4843C56.334 89.72 59.6621 90.3551 63.0207 90.3563ZM84.3707 85.3466C84.6552 85.8679 84.7462 86.473 84.6276 87.0549C84.509 87.6368 84.1884 88.158 83.7225 88.5263C78.3061 92.7609 71.7212 95.2324 64.8561 95.6073C57.991 95.9823 51.1761 94.2427 45.3307 90.6231C45.1553 90.4913 44.9399 90.424 44.7207 90.4325C44.1107 90.4325 43.5388 90.89 43.5388 91.5763C43.5388 91.7288 43.5769 91.8813 43.6532 92.0338C44.4919 93.5588 49.9057 102.671 61.2288 102.671C61.2288 102.671 57.4163 103.967 54.0994 104.348C53.4894 104.424 53.2225 105.149 53.7944 105.454C56.2725 106.75 60.4663 107.246 64.2025 107.246C67.5957 107.246 70.6457 106.826 71.8657 106.216C71.8657 106.216 70.4932 108.961 66.2613 112.011C65.6894 112.431 65.9182 113.308 66.6044 113.308C83.0744 112.736 96.6088 98.21 96.6088 81.435L96.605 80.8403C92.6362 82.8609 88.45 84.3401 84.3707 85.3466ZM98.2939 75.5104C109.156 68.6974 116.914 56.9931 112.389 38.9256C112.353 38.7407 112.253 38.5743 112.106 38.4557C111.96 38.3372 111.776 38.2741 111.588 38.2775C111.207 38.2775 110.826 38.5444 110.711 39.0019C110.063 41.7088 109.529 42.8525 108.652 44.6825C108.614 44.7969 108.462 44.8731 108.347 44.8731C108.157 44.8731 107.966 44.7588 107.966 44.53C107.737 33.8931 104.992 23.8663 100.875 18.2619C100.811 18.1578 100.721 18.0718 100.614 18.0118C100.507 17.9518 100.387 17.9198 100.265 17.9188C99.8456 17.9188 99.4643 18.2619 99.4643 18.7575V27.9075C99.4643 28.1363 99.2356 28.2888 99.0068 28.2888C98.9282 28.2902 98.8508 28.2695 98.7834 28.2291C98.716 28.1886 98.6613 28.13 98.6256 28.06C96.4525 23.0275 89.7043 10.5225 75.4837 7.66314H75.2931C74.5306 7.66314 74.2256 8.65439 74.8737 9.18814C80.2493 13.4581 87.76 21.1975 87.9887 31.9488C88.2937 44.6825 81.8887 51.4306 76.3987 54.9763C76.2081 55.0525 76.0175 55.1669 75.8268 55.2813C74.1457 56.3036 72.3759 57.1726 70.5389 57.8776L70.6533 57.9195C65.6589 60.2718 61.8617 64.0729 61.8617 70.1157C61.8617 77.7255 68.7127 83.7873 76.2348 82.9371H76.2538C83.2955 82.1518 91.4123 79.8071 98.2939 75.5104Z" fill="url(#paint1_linear_324_8033)"/>
</g>
</g>
<defs>
<linearGradient id="paint0_linear_324_8033" x1="61.3017" y1="42.1579" x2="58.436" y2="38.6843" gradientUnits="userSpaceOnUse">
<stop stop-color="#4085F2"/>
<stop offset="1" stop-color="#A26DFF"/>
</linearGradient>
<linearGradient id="paint1_linear_324_8033" x1="121.453" y1="110.433" x2="23.537" y2="-8.14615" gradientUnits="userSpaceOnUse">
<stop stop-color="#4085F2"/>
<stop offset="1" stop-color="#A26DFF"/>
</linearGradient>
<clipPath id="clip0_324_8033">
<rect width="122" height="122" fill="white"/>
</clipPath>
</defs>
</svg>
