<svg width="122" height="123" viewBox="0 0 122 123" fill="none" xmlns="http://www.w3.org/2000/svg">
<g clip-path="url(#clip0_329_7971)">
<path fill-rule="evenodd" clip-rule="evenodd" d="M100.083 3.55261C99.8974 2.80344 99.5159 2.11709 98.9777 1.56378C98.4395 1.01047 97.764 0.610059 97.0203 0.403515C96.2765 0.196971 95.4913 0.191708 94.7448 0.388263C93.9984 0.584819 93.3176 0.976137 92.772 1.52218L75.3435 18.9508C74.8119 19.4834 74.4274 20.1446 74.2274 20.87C74.0273 21.5954 74.0185 22.3602 74.2019 23.09L77.339 35.6735L77.217 35.7955L56.3812 56.6313C55.2267 57.8703 54.5982 59.509 54.6281 61.2022C54.658 62.8954 55.3439 64.5109 56.5413 65.7083C57.7388 66.9058 59.3543 67.5917 61.0475 67.6216C62.7407 67.6514 64.3794 67.0229 65.6183 65.8685L86.4716 45.0413L86.5936 44.9106L99.1683 48.0565C99.8981 48.2398 100.663 48.231 101.388 48.031C102.114 47.8309 102.775 47.4464 103.308 46.9149L120.736 29.4863C121.284 28.941 121.678 28.2595 121.876 27.512C122.074 26.7644 122.069 25.9776 121.862 25.2324C121.655 24.4872 121.254 23.8104 120.699 23.2716C120.145 22.7328 119.457 22.3513 118.706 22.1663L103.813 18.454L100.083 3.55261ZM63.7622 6.86404C63.8819 8.59269 63.3102 10.2981 62.1729 11.6054C61.0356 12.9127 59.4256 13.7149 57.697 13.8355C48.5923 14.4664 39.8601 17.6979 32.538 23.1459C25.2159 28.5939 19.6118 36.0295 16.3914 44.569C13.1711 53.1085 12.4699 62.393 14.3713 71.3193C16.2727 80.2456 20.6967 88.4384 27.1175 94.9242C33.5384 101.41 41.6863 105.916 50.593 107.907C59.4997 109.899 68.7908 109.291 77.3623 106.157C85.9338 103.023 93.4253 97.4935 98.9468 90.2266C104.468 82.9597 107.787 74.2605 108.51 65.1626C108.648 63.4339 109.466 61.8305 110.786 60.7054C112.105 59.5802 113.818 59.0253 115.547 59.1628C117.276 59.3003 118.879 60.119 120.004 61.4386C121.129 62.7583 121.684 64.4709 121.547 66.1996C120.624 77.7915 116.394 88.875 109.358 98.1334C102.322 107.392 92.7762 114.436 81.8547 118.429C70.9331 122.421 59.095 123.195 47.7466 120.658C36.3983 118.121 26.0168 112.379 17.8356 104.115C9.65435 95.8515 4.01729 85.4128 1.59412 74.0396C-0.829055 62.6663 0.0635155 50.8365 4.16579 39.9556C8.26806 29.0747 15.4076 19.6001 24.7361 12.6575C34.0647 5.71481 45.1902 1.59593 56.7907 0.790184C58.5194 0.670462 60.2248 1.24211 61.5321 2.37946C62.8394 3.5168 63.6416 5.13545 63.7622 6.86404ZM57.9062 35.6125C58.2193 36.4118 58.3719 37.265 58.3553 38.1233C58.3386 38.9816 58.153 39.8283 57.8091 40.6148C57.4652 41.4014 56.9696 42.1125 56.3508 42.7076C55.732 43.3026 55.002 43.7699 54.2026 44.0828C51.3447 45.2038 48.8112 47.0193 46.8311 49.3653C44.851 51.7113 43.4867 54.5137 42.8616 57.5193C42.2365 60.5249 42.3702 63.6389 43.2507 66.5798C44.1312 69.5208 45.7307 72.196 47.9046 74.3635C50.0785 76.5311 52.7583 78.1228 55.7018 78.9947C58.6453 79.8666 61.7597 79.9913 64.7634 79.3574C67.7672 78.7235 70.5656 77.3511 72.9058 75.3642C75.246 73.3773 77.0542 70.8385 78.1669 67.9773C78.4782 67.1774 78.9439 66.4466 79.5376 65.8267C80.1313 65.2068 80.8413 64.7099 81.627 64.3644C82.4128 64.0189 83.2588 63.8315 84.117 63.8129C84.9751 63.7944 85.8285 63.9451 86.6285 64.2563C87.4284 64.5676 88.1592 65.0334 88.7791 65.6271C89.399 66.2208 89.8959 66.9307 90.2414 67.7165C90.5869 68.5022 90.7743 69.3483 90.7929 70.2064C90.8114 71.0646 90.6607 71.918 90.3495 72.7179C88.4489 77.6038 85.3606 81.9391 81.3637 85.3317C77.3669 88.7243 72.5875 91.0673 67.4577 92.1489C62.3279 93.2304 57.0095 93.0165 51.9831 91.5263C46.9568 90.0362 42.3811 87.3168 38.6697 83.6141C34.9583 79.9114 32.2282 75.3421 30.7262 70.3193C29.2243 65.2964 28.9979 59.9785 30.0674 54.8462C31.1369 49.7138 33.4687 44.929 36.8519 40.9242C40.2352 36.9194 44.5631 33.8209 49.4446 31.9089C51.0579 31.2792 52.8552 31.3155 54.4417 32.0099C56.0282 32.7043 57.2743 34 57.9062 35.6125Z" fill="url(#paint0_linear_329_7971)"/>
</g>
<defs>
<linearGradient id="paint0_linear_329_7971" x1="122.021" y1="111.457" x2="23.2867" y2="-8.10581" gradientUnits="userSpaceOnUse">
<stop stop-color="#4085F2"/>
<stop offset="1" stop-color="#A26DFF"/>
</linearGradient>
<clipPath id="clip0_329_7971">
<rect width="122" height="122" fill="white" transform="translate(0 0.25)"/>
</clipPath>
</defs>
</svg>
