<svg width="38" height="41" viewBox="0 0 38 41" fill="none" xmlns="http://www.w3.org/2000/svg">
<g clip-path="url(#clip0_188_8641)">
<path d="M18.9296 20.3496L0.999954 38.8633V2.31738L18.9296 20.3496ZM25.2119 26.6797L18.9824 30.1377L18.9814 30.1387C18.9803 30.1393 18.9787 30.1404 18.9765 30.1416C18.972 30.1441 18.965 30.1474 18.956 30.1523C18.9381 30.1623 18.9109 30.1769 18.8759 30.1963C18.8059 30.2351 18.7025 30.2933 18.5693 30.3672C18.3025 30.5152 17.9157 30.7297 17.4355 30.9961C16.4746 31.5292 15.1394 32.2703 13.6425 33.1016C12.5785 33.6925 11.4335 34.3306 10.2822 34.9707L21.6904 23.1387L25.2119 26.6797ZM28.8632 15.7559C30.9099 16.9264 36.1158 19.8313 36.833 20.2197L36.7714 20.2588C36.2579 20.5379 34.3291 21.6093 32.4238 22.668C31.0217 23.447 29.6311 24.2161 28.8105 24.6699L24.4814 20.2832L28.8632 15.7559ZM12.3642 6.55371C14.1383 7.54335 15.7861 8.46227 16.9902 9.13379C17.5923 9.46955 18.0841 9.74363 18.4248 9.93359C18.5947 10.0284 18.7273 10.1021 18.8173 10.1523C18.8622 10.1774 18.8967 10.1971 18.9199 10.21C18.9313 10.2164 18.9404 10.2213 18.9462 10.2246C18.9492 10.2262 18.9516 10.2277 18.9531 10.2285L18.955 10.2295H18.956L25.2861 13.75L21.6709 17.4922L8.91988 4.63086C10.0652 5.26998 11.2399 5.92652 12.3642 6.55371Z" stroke="url(#paint0_linear_188_8641)" stroke-width="2"/>
</g>
<defs>
<linearGradient id="paint0_linear_188_8641" x1="18.9979" y1="0" x2="18.9979" y2="41" gradientUnits="userSpaceOnUse">
<stop stop-color="#A26DFF"/>
<stop offset="1" stop-color="#4085F2"/>
</linearGradient>
<clipPath id="clip0_188_8641">
<rect width="38" height="41" fill="white"/>
</clipPath>
</defs>
</svg>
