<svg width="42" height="41" viewBox="0 0 42 41" fill="none" xmlns="http://www.w3.org/2000/svg">
<g clip-path="url(#clip0_188_8635)">
<mask id="path-1-inside-1_188_8635" fill="white">
<path d="M13.4174 5.43249H4.52144V14.0414H13.4174V5.43249ZM15.6413 3.28025V16.195H2.29609V3.28003L15.6413 3.28025ZM6.74542 7.58472H11.1934V11.8892H6.74542V7.58472ZM35.6606 5.43249H26.7647V14.0414H35.6606V5.43249ZM37.8845 3.28025V16.195H24.5384V3.28003H37.8839L37.8845 3.28025ZM28.9886 7.58472H33.4366V11.8892H28.9886V7.58472ZM13.4174 26.9575H4.52144V35.5665H13.4174V26.9575ZM15.6413 24.8053V37.7202H2.29609V24.8051L15.6413 24.8053ZM6.74542 29.1098H11.1934V33.4142H6.74542V29.1098ZM17.8658 3.28003H20.0897V5.43227H17.8658V3.28003ZM20.0897 5.43227H22.3137V7.5845H20.0897V5.43227ZM17.8658 7.5845H20.0897V9.73674H17.8658V7.5845ZM20.0897 9.73674H22.3137V11.889H20.0897V9.73674ZM17.8658 11.889H20.0897V14.0412H17.8658V11.889ZM20.0897 14.0412H22.3137V16.1934H20.0897V14.0412ZM17.8658 16.1934H20.0897V18.3457H17.8658V16.1934ZM17.8658 20.4979H20.0897V22.6502H17.8658V20.4979ZM20.0897 22.6502H22.3137V24.8024H20.0897V22.6502ZM17.8658 24.8024H20.0897V26.9546H17.8658V24.8024ZM20.0897 26.9546H22.3137V29.1069H20.0897V26.9546ZM17.8658 29.1069H20.0897V31.2591H17.8658V29.1069ZM20.0897 31.2591H22.3137V33.4113H20.0897V31.2591ZM17.8658 33.4113H20.0897V35.5636H17.8658V33.4113ZM20.0897 35.5636H22.3137V37.7158H20.0897V35.5636ZM35.6594 20.4961H37.8834V22.6484H35.6594V20.4961ZM4.52006 20.4961H6.74404V22.6484H4.52006V20.4961ZM6.74404 18.3439H8.96802V20.4961H6.74404V18.3439ZM2.29609 18.3439H4.52006V20.4961H2.29609V18.3439ZM11.192 18.3439H13.416V20.4961H11.192V18.3439ZM13.416 20.4961H15.64V22.6484H13.416V20.4961ZM15.64 18.3439H17.8639V20.4961H15.64V18.3439ZM22.3119 20.4961H24.5359V22.6484H22.3119V20.4961ZM24.5359 18.3439H26.7598V20.4961H24.5359V18.3439ZM26.7598 20.4961H28.9838V22.6484H26.7598V20.4961ZM28.9838 18.3439H31.2078V20.4961H28.9838V18.3439ZM31.2078 20.4961H33.4318V22.6484H31.2078V20.4961ZM33.4318 18.3439H35.6558V20.4961H33.4318V18.3439ZM35.6558 24.8006H37.8797V26.9529H35.6558V24.8006ZM22.3103 24.8006H24.5343V26.9529H22.3103V24.8006ZM24.5343 22.6484H26.7582V24.8006H24.5343V22.6484ZM26.7582 24.8006H28.9822V26.9529H26.7582V24.8006ZM31.2062 24.8006H33.4302V26.9529H31.2062V24.8006ZM33.4302 22.6484H35.6541V24.8006H33.4302V22.6484ZM35.6541 29.1051H37.8781V31.2573H35.6541V29.1051ZM22.3087 29.1051H24.5327V31.2573H22.3087V29.1051ZM24.5327 26.9529H26.7566V29.1051H24.5327V26.9529ZM28.9806 26.9529H31.2046V29.1051H28.9806V26.9529ZM31.2046 29.1051H33.4286V31.2573H31.2046V29.1051ZM33.4286 26.9529H35.6525V29.1051H33.4286V26.9529ZM35.6525 33.4096H37.8765V35.5618H35.6525V33.4096ZM24.5313 31.2573H26.7553V33.4096H24.5313V31.2573ZM26.7553 33.4096H28.9792V35.5618H26.7553V33.4096ZM28.9792 31.2573H31.2032V33.4096H28.9792V31.2573ZM31.2032 33.4096H33.4272V35.5618H31.2032V33.4096ZM24.5313 35.5618H26.7553V37.714H24.5313V35.5618ZM28.9792 35.5618H31.2032V37.714H28.9792V35.5618ZM33.4272 35.5618H35.6512V37.714H33.4272V35.5618Z"/>
</mask>
<path d="M13.4174 5.43249H14.4174V4.43249H13.4174V5.43249ZM4.52144 5.43249V4.43249H3.52144V5.43249H4.52144ZM4.52144 14.0414H3.52144V15.0414H4.52144V14.0414ZM13.4174 14.0414V15.0414H14.4174V14.0414H13.4174ZM15.6413 3.28025H16.6413V2.28027L15.6413 2.28025L15.6413 3.28025ZM15.6413 16.195V17.195H16.6413V16.195H15.6413ZM2.29609 16.195H1.29609V17.195H2.29609V16.195ZM2.29609 3.28003L2.2961 2.28003L1.29609 2.28001V3.28003H2.29609ZM6.74542 7.58472V6.58472H5.74542V7.58472H6.74542ZM11.1934 7.58472H12.1934V6.58472H11.1934V7.58472ZM11.1934 11.8892V12.8892H12.1934V11.8892H11.1934ZM6.74542 11.8892H5.74542V12.8892H6.74542V11.8892ZM35.6606 5.43249H36.6606V4.43249H35.6606V5.43249ZM26.7647 5.43249V4.43249H25.7647V5.43249H26.7647ZM26.7647 14.0414H25.7647V15.0414H26.7647V14.0414ZM35.6606 14.0414V15.0414H36.6606V14.0414H35.6606ZM37.8845 3.28025H38.8845V2.55166L38.191 2.32837L37.8845 3.28025ZM37.8845 16.195V17.195H38.8845V16.195H37.8845ZM24.5384 16.195H23.5384V17.195H24.5384V16.195ZM24.5384 3.28003V2.28003H23.5384V3.28003H24.5384ZM37.8839 3.28003L38.1903 2.32815L38.0409 2.28003H37.8839V3.28003ZM28.9886 7.58472V6.58472H27.9886V7.58472H28.9886ZM33.4366 7.58472H34.4366V6.58472H33.4366V7.58472ZM33.4366 11.8892V12.8892H34.4366V11.8892H33.4366ZM28.9886 11.8892H27.9886V12.8892H28.9886V11.8892ZM13.4174 26.9575H14.4174V25.9575H13.4174V26.9575ZM4.52144 26.9575V25.9575H3.52144V26.9575H4.52144ZM4.52144 35.5665H3.52144V36.5665H4.52144V35.5665ZM13.4174 35.5665V36.5665H14.4174V35.5665H13.4174ZM15.6413 24.8053H16.6413V23.8053L15.6413 23.8053L15.6413 24.8053ZM15.6413 37.7202V38.7202H16.6413V37.7202H15.6413ZM2.29609 37.7202H1.29609V38.7202H2.29609V37.7202ZM2.29609 24.8051L2.2961 23.8051L1.29609 23.805V24.8051H2.29609ZM6.74542 29.1098V28.1098H5.74542V29.1098H6.74542ZM11.1934 29.1098H12.1934V28.1098H11.1934V29.1098ZM11.1934 33.4142V34.4142H12.1934V33.4142H11.1934ZM6.74542 33.4142H5.74542V34.4142H6.74542V33.4142ZM17.8658 3.28003V2.28003H16.8658V3.28003H17.8658ZM20.0897 3.28003H21.0897V2.28003H20.0897V3.28003ZM17.8658 5.43227H16.8658V6.43227H17.8658V5.43227ZM22.3137 5.43227H23.3137V4.43227H22.3137V5.43227ZM22.3137 7.5845V8.5845H23.3137V7.5845H22.3137ZM17.8658 7.5845V6.5845H16.8658V7.5845H17.8658ZM17.8658 9.73674H16.8658V10.7367H17.8658V9.73674ZM22.3137 9.73674H23.3137V8.73674H22.3137V9.73674ZM22.3137 11.889V12.889H23.3137V11.889H22.3137ZM17.8658 11.889V10.889H16.8658V11.889H17.8658ZM17.8658 14.0412H16.8658V15.0412H17.8658V14.0412ZM22.3137 14.0412H23.3137V13.0412H22.3137V14.0412ZM22.3137 16.1934V17.1934H23.3137V16.1934H22.3137ZM17.8658 16.1934V15.1934H16.8658V16.1934H17.8658ZM20.0897 18.3457V19.3457H21.0897V18.3457H20.0897ZM17.8658 18.3457H16.8658V19.3457H17.8658V18.3457ZM17.8658 20.4979V19.4979H16.8658V20.4979H17.8658ZM20.0897 20.4979H21.0897V19.4979H20.0897V20.4979ZM17.8658 22.6502H16.8658V23.6502H17.8658V22.6502ZM22.3137 22.6502H23.3137V21.6502H22.3137V22.6502ZM22.3137 24.8024V25.8024H23.3137V24.8024H22.3137ZM17.8658 24.8024V23.8024H16.8658V24.8024H17.8658ZM17.8658 26.9546H16.8658V27.9546H17.8658V26.9546ZM22.3137 26.9546H23.3137V25.9546H22.3137V26.9546ZM22.3137 29.1069V30.1069H23.3137V29.1069H22.3137ZM17.8658 29.1069V28.1069H16.8658V29.1069H17.8658ZM17.8658 31.2591H16.8658V32.2591H17.8658V31.2591ZM22.3137 31.2591H23.3137V30.2591H22.3137V31.2591ZM22.3137 33.4113V34.4113H23.3137V33.4113H22.3137ZM17.8658 33.4113V32.4113H16.8658V33.4113H17.8658ZM17.8658 35.5636H16.8658V36.5636H17.8658V35.5636ZM22.3137 35.5636H23.3137V34.5636H22.3137V35.5636ZM22.3137 37.7158V38.7158H23.3137V37.7158H22.3137ZM20.0897 37.7158H19.0897V38.7158H20.0897V37.7158ZM35.6594 20.4961V19.4961H34.6594V20.4961H35.6594ZM37.8834 20.4961H38.8834V19.4961H37.8834V20.4961ZM37.8834 22.6484V23.6484H38.8834V22.6484H37.8834ZM35.6594 22.6484H34.6594V23.6484H35.6594V22.6484ZM6.74404 22.6484V23.6484H7.74404V22.6484H6.74404ZM4.52006 22.6484H3.52006V23.6484H4.52006V22.6484ZM6.74404 18.3439V17.3439H5.74404V18.3439H6.74404ZM8.96802 18.3439H9.96802V17.3439H8.96802V18.3439ZM8.96802 20.4961V21.4961H9.96802V20.4961H8.96802ZM2.29609 18.3439V17.3439H1.29609V18.3439H2.29609ZM4.52006 18.3439H5.52006V17.3439H4.52006V18.3439ZM2.29609 20.4961H1.29609V21.4961H2.29609V20.4961ZM11.192 18.3439V17.3439H10.192V18.3439H11.192ZM13.416 18.3439H14.416V17.3439H13.416V18.3439ZM11.192 20.4961H10.192V21.4961H11.192V20.4961ZM15.64 22.6484V23.6484H16.64V22.6484H15.64ZM13.416 22.6484H12.416V23.6484H13.416V22.6484ZM15.64 18.3439V17.3439H14.64V18.3439H15.64ZM17.8639 18.3439H18.8639V17.3439H17.8639V18.3439ZM17.8639 20.4961V21.4961H18.8639V20.4961H17.8639ZM22.3119 20.4961V19.4961H21.3119V20.4961H22.3119ZM24.5359 22.6484V23.6484H25.5359V22.6484H24.5359ZM22.3119 22.6484H21.3119V23.6484H22.3119V22.6484ZM24.5359 18.3439V17.3439H23.5359V18.3439H24.5359ZM26.7598 18.3439H27.7598V17.3439H26.7598V18.3439ZM28.9838 22.6484V23.6484H29.9838V22.6484H28.9838ZM26.7598 22.6484H25.7598V23.6484H26.7598V22.6484ZM28.9838 18.3439V17.3439H27.9838V18.3439H28.9838ZM31.2078 18.3439H32.2078V17.3439H31.2078V18.3439ZM33.4318 22.6484V23.6484H34.4318V22.6484H33.4318ZM31.2078 22.6484H30.2078V23.6484H31.2078V22.6484ZM33.4318 18.3439V17.3439H32.4318V18.3439H33.4318ZM35.6558 18.3439H36.6558V17.3439H35.6558V18.3439ZM35.6558 20.4961V21.4961H36.6558V20.4961H35.6558ZM35.6558 24.8006V23.8006H34.6558V24.8006H35.6558ZM37.8797 24.8006H38.8797V23.8006H37.8797V24.8006ZM37.8797 26.9529V27.9529H38.8797V26.9529H37.8797ZM35.6558 26.9529H34.6558V27.9529H35.6558V26.9529ZM22.3103 24.8006V23.8006H21.3103V24.8006H22.3103ZM24.5343 26.9529V27.9529H25.5343V26.9529H24.5343ZM22.3103 26.9529H21.3103V27.9529H22.3103V26.9529ZM24.5343 22.6484V21.6484H23.5343V22.6484H24.5343ZM26.7582 22.6484H27.7582V21.6484H26.7582V22.6484ZM28.9822 24.8006H29.9822V23.8006H28.9822V24.8006ZM28.9822 26.9529V27.9529H29.9822V26.9529H28.9822ZM26.7582 26.9529H25.7582V27.9529H26.7582V26.9529ZM31.2062 24.8006V23.8006H30.2062V24.8006H31.2062ZM33.4302 26.9529V27.9529H34.4302V26.9529H33.4302ZM31.2062 26.9529H30.2062V27.9529H31.2062V26.9529ZM33.4302 22.6484V21.6484H32.4302V22.6484H33.4302ZM35.6541 22.6484H36.6541V21.6484H35.6541V22.6484ZM35.6541 24.8006V25.8006H36.6541V24.8006H35.6541ZM35.6541 29.1051V28.1051H34.6541V29.1051H35.6541ZM37.8781 29.1051H38.8781V28.1051H37.8781V29.1051ZM37.8781 31.2573V32.2573H38.8781V31.2573H37.8781ZM35.6541 31.2573H34.6541V32.2573H35.6541V31.2573ZM22.3087 29.1051V28.1051H21.3087V29.1051H22.3087ZM24.5327 31.2573V32.2573H25.5327V31.2573H24.5327ZM22.3087 31.2573H21.3087V32.2573H22.3087V31.2573ZM24.5327 26.9529V25.9529H23.5327V26.9529H24.5327ZM26.7566 26.9529H27.7566V25.9529H26.7566V26.9529ZM26.7566 29.1051V30.1051H27.7566V29.1051H26.7566ZM28.9806 26.9529V25.9529H27.9806V26.9529H28.9806ZM31.2046 26.9529H32.2046V25.9529H31.2046V26.9529ZM28.9806 29.1051H27.9806V30.1051H28.9806V29.1051ZM33.4286 31.2573V32.2573H34.4286V31.2573H33.4286ZM31.2046 31.2573H30.2046V32.2573H31.2046V31.2573ZM33.4286 26.9529V25.9529H32.4286V26.9529H33.4286ZM35.6525 26.9529H36.6525V25.9529H35.6525V26.9529ZM35.6525 29.1051V30.1051H36.6525V29.1051H35.6525ZM35.6525 33.4096V32.4096H34.6525V33.4096H35.6525ZM37.8765 33.4096H38.8765V32.4096H37.8765V33.4096ZM37.8765 35.5618V36.5618H38.8765V35.5618H37.8765ZM35.6525 35.5618H34.6525V36.5618H35.6525V35.5618ZM24.5313 31.2573V30.2573H23.5313V31.2573H24.5313ZM26.7553 31.2573H27.7553V30.2573H26.7553V31.2573ZM24.5313 33.4096H23.5313V34.4096H24.5313V33.4096ZM28.9792 31.2573V30.2573H27.9792V31.2573H28.9792ZM31.2032 31.2573H32.2032V30.2573H31.2032V31.2573ZM33.4272 33.4096H34.4272V32.4096H33.4272V33.4096ZM24.5313 35.5618V34.5618H23.5313V35.5618H24.5313ZM26.7553 37.714V38.714H27.7553V37.714H26.7553ZM24.5313 37.714H23.5313V38.714H24.5313V37.714ZM31.2032 37.714V38.714H32.2032V37.714H31.2032ZM28.9792 37.714H27.9792V38.714H28.9792V37.714ZM35.6512 35.5618H36.6512V34.5618H35.6512V35.5618ZM35.6512 37.714V38.714H36.6512V37.714H35.6512ZM33.4272 37.714H32.4272V38.714H33.4272V37.714ZM13.4174 4.43249H4.52144V6.43249H13.4174V4.43249ZM3.52144 5.43249V14.0414H5.52144V5.43249H3.52144ZM4.52144 15.0414H13.4174V13.0414H4.52144V15.0414ZM14.4174 14.0414V5.43249H12.4174V14.0414H14.4174ZM14.6413 3.28025V16.195H16.6413V3.28025H14.6413ZM15.6413 15.195H2.29609V17.195H15.6413V15.195ZM3.29609 16.195V3.28003H1.29609V16.195H3.29609ZM2.29607 4.28003L15.6413 4.28025L15.6413 2.28025L2.2961 2.28003L2.29607 4.28003ZM6.74542 8.58472H11.1934V6.58472H6.74542V8.58472ZM10.1934 7.58472V11.8892H12.1934V7.58472H10.1934ZM11.1934 10.8892H6.74542V12.8892H11.1934V10.8892ZM7.74542 11.8892V7.58472H5.74542V11.8892H7.74542ZM35.6606 4.43249H26.7647V6.43249H35.6606V4.43249ZM25.7647 5.43249V14.0414H27.7647V5.43249H25.7647ZM26.7647 15.0414H35.6606V13.0414H26.7647V15.0414ZM36.6606 14.0414V5.43249H34.6606V14.0414H36.6606ZM36.8845 3.28025V16.195H38.8845V3.28025H36.8845ZM37.8845 15.195H24.5384V17.195H37.8845V15.195ZM25.5384 16.195V3.28003H23.5384V16.195H25.5384ZM24.5384 4.28003H37.8839V2.28003H24.5384V4.28003ZM37.5774 4.23191L37.5781 4.23213L38.191 2.32837L38.1903 2.32815L37.5774 4.23191ZM28.9886 8.58472H33.4366V6.58472H28.9886V8.58472ZM32.4366 7.58472V11.8892H34.4366V7.58472H32.4366ZM33.4366 10.8892H28.9886V12.8892H33.4366V10.8892ZM29.9886 11.8892V7.58472H27.9886V11.8892H29.9886ZM13.4174 25.9575H4.52144V27.9575H13.4174V25.9575ZM3.52144 26.9575V35.5665H5.52144V26.9575H3.52144ZM4.52144 36.5665H13.4174V34.5665H4.52144V36.5665ZM14.4174 35.5665V26.9575H12.4174V35.5665H14.4174ZM14.6413 24.8053V37.7202H16.6413V24.8053H14.6413ZM15.6413 36.7202H2.29609V38.7202H15.6413V36.7202ZM3.29609 37.7202V24.8051H1.29609V37.7202H3.29609ZM2.29607 25.8051L15.6413 25.8053L15.6413 23.8053L2.2961 23.8051L2.29607 25.8051ZM6.74542 30.1098H11.1934V28.1098H6.74542V30.1098ZM10.1934 29.1098V33.4142H12.1934V29.1098H10.1934ZM11.1934 32.4142H6.74542V34.4142H11.1934V32.4142ZM7.74542 33.4142V29.1098H5.74542V33.4142H7.74542ZM17.8658 4.28003H20.0897V2.28003H17.8658V4.28003ZM19.0897 3.28003V5.43227H21.0897V3.28003H19.0897ZM20.0897 4.43227H17.8658V6.43227H20.0897V4.43227ZM18.8658 5.43227V3.28003H16.8658V5.43227H18.8658ZM20.0897 6.43227H22.3137V4.43227H20.0897V6.43227ZM21.3137 5.43227V7.5845H23.3137V5.43227H21.3137ZM22.3137 6.5845H20.0897V8.5845H22.3137V6.5845ZM21.0897 7.5845V5.43227H19.0897V7.5845H21.0897ZM17.8658 8.5845H20.0897V6.5845H17.8658V8.5845ZM19.0897 7.5845V9.73674H21.0897V7.5845H19.0897ZM20.0897 8.73674H17.8658V10.7367H20.0897V8.73674ZM18.8658 9.73674V7.5845H16.8658V9.73674H18.8658ZM20.0897 10.7367H22.3137V8.73674H20.0897V10.7367ZM21.3137 9.73674V11.889H23.3137V9.73674H21.3137ZM22.3137 10.889H20.0897V12.889H22.3137V10.889ZM21.0897 11.889V9.73674H19.0897V11.889H21.0897ZM17.8658 12.889H20.0897V10.889H17.8658V12.889ZM19.0897 11.889V14.0412H21.0897V11.889H19.0897ZM20.0897 13.0412H17.8658V15.0412H20.0897V13.0412ZM18.8658 14.0412V11.889H16.8658V14.0412H18.8658ZM20.0897 15.0412H22.3137V13.0412H20.0897V15.0412ZM21.3137 14.0412V16.1934H23.3137V14.0412H21.3137ZM22.3137 15.1934H20.0897V17.1934H22.3137V15.1934ZM21.0897 16.1934V14.0412H19.0897V16.1934H21.0897ZM17.8658 17.1934H20.0897V15.1934H17.8658V17.1934ZM19.0897 16.1934V18.3457H21.0897V16.1934H19.0897ZM20.0897 17.3457H17.8658V19.3457H20.0897V17.3457ZM18.8658 18.3457V16.1934H16.8658V18.3457H18.8658ZM17.8658 21.4979H20.0897V19.4979H17.8658V21.4979ZM19.0897 20.4979V22.6502H21.0897V20.4979H19.0897ZM20.0897 21.6502H17.8658V23.6502H20.0897V21.6502ZM18.8658 22.6502V20.4979H16.8658V22.6502H18.8658ZM20.0897 23.6502H22.3137V21.6502H20.0897V23.6502ZM21.3137 22.6502V24.8024H23.3137V22.6502H21.3137ZM22.3137 23.8024H20.0897V25.8024H22.3137V23.8024ZM21.0897 24.8024V22.6502H19.0897V24.8024H21.0897ZM17.8658 25.8024H20.0897V23.8024H17.8658V25.8024ZM19.0897 24.8024V26.9546H21.0897V24.8024H19.0897ZM20.0897 25.9546H17.8658V27.9546H20.0897V25.9546ZM18.8658 26.9546V24.8024H16.8658V26.9546H18.8658ZM20.0897 27.9546H22.3137V25.9546H20.0897V27.9546ZM21.3137 26.9546V29.1069H23.3137V26.9546H21.3137ZM22.3137 28.1069H20.0897V30.1069H22.3137V28.1069ZM21.0897 29.1069V26.9546H19.0897V29.1069H21.0897ZM17.8658 30.1069H20.0897V28.1069H17.8658V30.1069ZM19.0897 29.1069V31.2591H21.0897V29.1069H19.0897ZM20.0897 30.2591H17.8658V32.2591H20.0897V30.2591ZM18.8658 31.2591V29.1069H16.8658V31.2591H18.8658ZM20.0897 32.2591H22.3137V30.2591H20.0897V32.2591ZM21.3137 31.2591V33.4113H23.3137V31.2591H21.3137ZM22.3137 32.4113H20.0897V34.4113H22.3137V32.4113ZM21.0897 33.4113V31.2591H19.0897V33.4113H21.0897ZM17.8658 34.4113H20.0897V32.4113H17.8658V34.4113ZM19.0897 33.4113V35.5636H21.0897V33.4113H19.0897ZM20.0897 34.5636H17.8658V36.5636H20.0897V34.5636ZM18.8658 35.5636V33.4113H16.8658V35.5636H18.8658ZM20.0897 36.5636H22.3137V34.5636H20.0897V36.5636ZM21.3137 35.5636V37.7158H23.3137V35.5636H21.3137ZM22.3137 36.7158H20.0897V38.7158H22.3137V36.7158ZM21.0897 37.7158V35.5636H19.0897V37.7158H21.0897ZM35.6594 21.4961H37.8834V19.4961H35.6594V21.4961ZM36.8834 20.4961V22.6484H38.8834V20.4961H36.8834ZM37.8834 21.6484H35.6594V23.6484H37.8834V21.6484ZM36.6594 22.6484V20.4961H34.6594V22.6484H36.6594ZM4.52006 21.4961H6.74404V19.4961H4.52006V21.4961ZM5.74404 20.4961V22.6484H7.74404V20.4961H5.74404ZM6.74404 21.6484H4.52006V23.6484H6.74404V21.6484ZM5.52006 22.6484V20.4961H3.52006V22.6484H5.52006ZM6.74404 19.3439H8.96802V17.3439H6.74404V19.3439ZM7.96802 18.3439V20.4961H9.96802V18.3439H7.96802ZM8.96802 19.4961H6.74404V21.4961H8.96802V19.4961ZM7.74404 20.4961V18.3439H5.74404V20.4961H7.74404ZM2.29609 19.3439H4.52006V17.3439H2.29609V19.3439ZM3.52006 18.3439V20.4961H5.52006V18.3439H3.52006ZM4.52006 19.4961H2.29609V21.4961H4.52006V19.4961ZM3.29609 20.4961V18.3439H1.29609V20.4961H3.29609ZM11.192 19.3439H13.416V17.3439H11.192V19.3439ZM12.416 18.3439V20.4961H14.416V18.3439H12.416ZM13.416 19.4961H11.192V21.4961H13.416V19.4961ZM12.192 20.4961V18.3439H10.192V20.4961H12.192ZM13.416 21.4961H15.64V19.4961H13.416V21.4961ZM14.64 20.4961V22.6484H16.64V20.4961H14.64ZM15.64 21.6484H13.416V23.6484H15.64V21.6484ZM14.416 22.6484V20.4961H12.416V22.6484H14.416ZM15.64 19.3439H17.8639V17.3439H15.64V19.3439ZM16.8639 18.3439V20.4961H18.8639V18.3439H16.8639ZM17.8639 19.4961H15.64V21.4961H17.8639V19.4961ZM16.64 20.4961V18.3439H14.64V20.4961H16.64ZM22.3119 21.4961H24.5359V19.4961H22.3119V21.4961ZM23.5359 20.4961V22.6484H25.5359V20.4961H23.5359ZM24.5359 21.6484H22.3119V23.6484H24.5359V21.6484ZM23.3119 22.6484V20.4961H21.3119V22.6484H23.3119ZM24.5359 19.3439H26.7598V17.3439H24.5359V19.3439ZM25.7598 18.3439V20.4961H27.7598V18.3439H25.7598ZM26.7598 19.4961H24.5359V21.4961H26.7598V19.4961ZM25.5359 20.4961V18.3439H23.5359V20.4961H25.5359ZM26.7598 21.4961H28.9838V19.4961H26.7598V21.4961ZM27.9838 20.4961V22.6484H29.9838V20.4961H27.9838ZM28.9838 21.6484H26.7598V23.6484H28.9838V21.6484ZM27.7598 22.6484V20.4961H25.7598V22.6484H27.7598ZM28.9838 19.3439H31.2078V17.3439H28.9838V19.3439ZM30.2078 18.3439V20.4961H32.2078V18.3439H30.2078ZM31.2078 19.4961H28.9838V21.4961H31.2078V19.4961ZM29.9838 20.4961V18.3439H27.9838V20.4961H29.9838ZM31.2078 21.4961H33.4318V19.4961H31.2078V21.4961ZM32.4318 20.4961V22.6484H34.4318V20.4961H32.4318ZM33.4318 21.6484H31.2078V23.6484H33.4318V21.6484ZM32.2078 22.6484V20.4961H30.2078V22.6484H32.2078ZM33.4318 19.3439H35.6558V17.3439H33.4318V19.3439ZM34.6558 18.3439V20.4961H36.6558V18.3439H34.6558ZM35.6558 19.4961H33.4318V21.4961H35.6558V19.4961ZM34.4318 20.4961V18.3439H32.4318V20.4961H34.4318ZM35.6558 25.8006H37.8797V23.8006H35.6558V25.8006ZM36.8797 24.8006V26.9529H38.8797V24.8006H36.8797ZM37.8797 25.9529H35.6558V27.9529H37.8797V25.9529ZM36.6558 26.9529V24.8006H34.6558V26.9529H36.6558ZM22.3103 25.8006H24.5343V23.8006H22.3103V25.8006ZM23.5343 24.8006V26.9529H25.5343V24.8006H23.5343ZM24.5343 25.9529H22.3103V27.9529H24.5343V25.9529ZM23.3103 26.9529V24.8006H21.3103V26.9529H23.3103ZM24.5343 23.6484H26.7582V21.6484H24.5343V23.6484ZM25.7582 22.6484V24.8006H27.7582V22.6484H25.7582ZM26.7582 23.8006H24.5343V25.8006H26.7582V23.8006ZM25.5343 24.8006V22.6484H23.5343V24.8006H25.5343ZM26.7582 25.8006H28.9822V23.8006H26.7582V25.8006ZM27.9822 24.8006V26.9529H29.9822V24.8006H27.9822ZM28.9822 25.9529H26.7582V27.9529H28.9822V25.9529ZM27.7582 26.9529V24.8006H25.7582V26.9529H27.7582ZM31.2062 25.8006H33.4302V23.8006H31.2062V25.8006ZM32.4302 24.8006V26.9529H34.4302V24.8006H32.4302ZM33.4302 25.9529H31.2062V27.9529H33.4302V25.9529ZM32.2062 26.9529V24.8006H30.2062V26.9529H32.2062ZM33.4302 23.6484H35.6541V21.6484H33.4302V23.6484ZM34.6541 22.6484V24.8006H36.6541V22.6484H34.6541ZM35.6541 23.8006H33.4302V25.8006H35.6541V23.8006ZM34.4302 24.8006V22.6484H32.4302V24.8006H34.4302ZM35.6541 30.1051H37.8781V28.1051H35.6541V30.1051ZM36.8781 29.1051V31.2573H38.8781V29.1051H36.8781ZM37.8781 30.2573H35.6541V32.2573H37.8781V30.2573ZM36.6541 31.2573V29.1051H34.6541V31.2573H36.6541ZM22.3087 30.1051H24.5327V28.1051H22.3087V30.1051ZM23.5327 29.1051V31.2573H25.5327V29.1051H23.5327ZM24.5327 30.2573H22.3087V32.2573H24.5327V30.2573ZM23.3087 31.2573V29.1051H21.3087V31.2573H23.3087ZM24.5327 27.9529H26.7566V25.9529H24.5327V27.9529ZM25.7566 26.9529V29.1051H27.7566V26.9529H25.7566ZM26.7566 28.1051H24.5327V30.1051H26.7566V28.1051ZM25.5327 29.1051V26.9529H23.5327V29.1051H25.5327ZM28.9806 27.9529H31.2046V25.9529H28.9806V27.9529ZM30.2046 26.9529V29.1051H32.2046V26.9529H30.2046ZM31.2046 28.1051H28.9806V30.1051H31.2046V28.1051ZM29.9806 29.1051V26.9529H27.9806V29.1051H29.9806ZM31.2046 30.1051H33.4286V28.1051H31.2046V30.1051ZM32.4286 29.1051V31.2573H34.4286V29.1051H32.4286ZM33.4286 30.2573H31.2046V32.2573H33.4286V30.2573ZM32.2046 31.2573V29.1051H30.2046V31.2573H32.2046ZM33.4286 27.9529H35.6525V25.9529H33.4286V27.9529ZM34.6525 26.9529V29.1051H36.6525V26.9529H34.6525ZM35.6525 28.1051H33.4286V30.1051H35.6525V28.1051ZM34.4286 29.1051V26.9529H32.4286V29.1051H34.4286ZM35.6525 34.4096H37.8765V32.4096H35.6525V34.4096ZM36.8765 33.4096V35.5618H38.8765V33.4096H36.8765ZM37.8765 34.5618H35.6525V36.5618H37.8765V34.5618ZM36.6525 35.5618V33.4096H34.6525V35.5618H36.6525ZM24.5313 32.2573H26.7553V30.2573H24.5313V32.2573ZM25.7553 31.2573V33.4096H27.7553V31.2573H25.7553ZM26.7553 32.4096H24.5313V34.4096H26.7553V32.4096ZM25.5313 33.4096V31.2573H23.5313V33.4096H25.5313ZM26.7553 34.4096H28.9792V32.4096H26.7553V34.4096ZM27.9792 33.4096V35.5618H29.9792V33.4096H27.9792ZM28.9792 34.5618H26.7553V36.5618H28.9792V34.5618ZM27.7553 35.5618V33.4096H25.7553V35.5618H27.7553ZM28.9792 32.2573H31.2032V30.2573H28.9792V32.2573ZM30.2032 31.2573V33.4096H32.2032V31.2573H30.2032ZM31.2032 32.4096H28.9792V34.4096H31.2032V32.4096ZM29.9792 33.4096V31.2573H27.9792V33.4096H29.9792ZM31.2032 34.4096H33.4272V32.4096H31.2032V34.4096ZM32.4272 33.4096V35.5618H34.4272V33.4096H32.4272ZM33.4272 34.5618H31.2032V36.5618H33.4272V34.5618ZM32.2032 35.5618V33.4096H30.2032V35.5618H32.2032ZM24.5313 36.5618H26.7553V34.5618H24.5313V36.5618ZM25.7553 35.5618V37.714H27.7553V35.5618H25.7553ZM26.7553 36.714H24.5313V38.714H26.7553V36.714ZM25.5313 37.714V35.5618H23.5313V37.714H25.5313ZM28.9792 36.5618H31.2032V34.5618H28.9792V36.5618ZM30.2032 35.5618V37.714H32.2032V35.5618H30.2032ZM31.2032 36.714H28.9792V38.714H31.2032V36.714ZM29.9792 37.714V35.5618H27.9792V37.714H29.9792ZM33.4272 36.5618H35.6512V34.5618H33.4272V36.5618ZM34.6512 35.5618V37.714H36.6512V35.5618H34.6512ZM35.6512 36.714H33.4272V38.714H35.6512V36.714ZM34.4272 37.714V35.5618H32.4272V37.714H34.4272Z" fill="url(#paint0_linear_188_8635)" mask="url(#path-1-inside-1_188_8635)"/>
</g>
<defs>
<linearGradient id="paint0_linear_188_8635" x1="20.0903" y1="3.28003" x2="20.0903" y2="37.7202" gradientUnits="userSpaceOnUse">
<stop stop-color="#A26DFF"/>
<stop offset="1" stop-color="#4085F2"/>
</linearGradient>
<clipPath id="clip0_188_8635">
<rect width="35.588" height="34.44" fill="white" transform="translate(2.29609 3.28003)"/>
</clipPath>
</defs>
</svg>
