<svg width="73" height="88" viewBox="0 0 73 88" fill="none" xmlns="http://www.w3.org/2000/svg">
<path d="M32.6458 87.6665C30.7014 87.6665 28.8792 87.2498 27.1792 86.4165C25.4792 85.5832 24.0375 84.4026 22.8542 82.8748L0.145828 54.0207L2.125 51.9373C3.51388 50.479 5.18055 49.611 7.12499 49.3332C9.06944 49.0554 10.875 49.4373 12.5417 50.479L20.25 55.1665V20.9998C20.25 19.8193 20.65 18.8304 21.45 18.0332C22.25 17.236 23.2389 16.8359 24.4167 16.8332C25.5944 16.8304 26.6014 17.2304 27.4375 18.0332C28.2736 18.836 28.6903 19.8248 28.6875 20.9998V70.1665L18.5833 63.9165L29.4167 77.7707C29.8333 78.2568 30.3194 78.6387 30.875 78.9165C31.4305 79.1943 32.0208 79.3332 32.6458 79.3332H55.6667C57.9583 79.3332 59.9208 78.5179 61.5542 76.8873C63.1875 75.2568 64.0028 73.2943 64 70.9998V54.3332C64 53.1526 63.6 52.1637 62.8 51.3665C62 50.5693 61.0111 50.1693 59.8333 50.1665H37.0208V41.8332H59.8333C63.3055 41.8332 66.2569 43.0485 68.6875 45.479C71.118 47.9096 72.3333 50.861 72.3333 54.3332V70.9998C72.3333 75.5832 70.7014 79.5068 67.4375 82.7707C64.1736 86.0346 60.25 87.6665 55.6667 87.6665H32.6458ZM6.39583 31.4165C5.49305 29.8887 4.79861 28.2401 4.31249 26.4707C3.82638 24.7012 3.58333 22.8776 3.58333 20.9998C3.58333 15.2359 5.61527 10.3235 9.67916 6.26234C13.743 2.20123 18.6555 0.169285 24.4167 0.166507C30.1778 0.163729 35.0917 2.19567 39.1583 6.26234C43.225 10.329 45.2555 15.2415 45.25 20.9998C45.25 22.8748 45.0069 24.6985 44.5208 26.4707C44.0347 28.2429 43.3403 29.8915 42.4375 31.4165L35.25 27.2498C35.8056 26.2776 36.2222 25.2887 36.5 24.2832C36.7778 23.2776 36.9167 22.1832 36.9167 20.9998C36.9167 17.5276 35.7014 14.5762 33.2708 12.1457C30.8403 9.71512 27.8889 8.49984 24.4167 8.49984C20.9444 8.49984 17.993 9.71512 15.5625 12.1457C13.1319 14.5762 11.9167 17.5276 11.9167 20.9998C11.9167 22.1804 12.0555 23.2748 12.3333 24.2832C12.6111 25.2915 13.0278 26.2804 13.5833 27.2498L6.39583 31.4165Z" fill="url(#paint0_linear_188_8950)"/>
<defs>
<linearGradient id="paint0_linear_188_8950" x1="72.3333" y1="80.0103" x2="0.145827" y2="7.82275" gradientUnits="userSpaceOnUse">
<stop stop-color="#4085F2"/>
<stop offset="1" stop-color="#A26DFF"/>
</linearGradient>
</defs>
</svg>
