<svg width="97" height="87" viewBox="0 0 97 87" fill="none" xmlns="http://www.w3.org/2000/svg">
<path d="M43.65 87V77.3333H82.45V43.0167C82.45 33.5917 79.1568 25.5973 72.5705 19.0337C65.9842 12.47 57.9607 9.18656 48.5 9.18333C39.0393 9.18011 31.0174 12.4636 24.4343 19.0337C17.8512 25.6038 14.5565 33.5981 14.55 43.0167V72.5H0V44.8292H4.85L5.21375 38.425C5.86042 32.9472 7.45768 27.8722 10.0056 23.2C12.5534 18.5278 15.7463 14.4597 19.5843 10.9958C23.4223 7.53195 27.8261 4.83333 32.7957 2.9C37.7653 0.966666 43.0001 0 48.5 0C53.9999 0 59.2136 0.966666 64.1413 2.9C69.0688 4.83333 73.4743 7.51261 77.3575 10.9378C81.2407 14.3631 84.4336 18.4102 86.9362 23.0792C89.4388 27.7482 91.0555 32.8232 91.7862 38.3042L92.15 44.8292H97V72.5H92.15V87H43.65ZM33.95 53.1667C32.5758 53.1667 31.4248 52.7027 30.4968 51.7747C29.5688 50.8467 29.1032 49.6996 29.1 48.3333C29.0968 46.9671 29.5624 45.82 30.4968 44.892C31.4312 43.964 32.5823 43.5 33.95 43.5C35.3177 43.5 36.4704 43.964 37.4081 44.892C38.3457 45.82 38.8097 46.9671 38.8 48.3333C38.7903 49.6996 38.3247 50.8483 37.4032 51.7795C36.4817 52.7107 35.3306 53.1731 33.95 53.1667ZM63.05 53.1667C61.6758 53.1667 60.5248 52.7027 59.5968 51.7747C58.6688 50.8467 58.2032 49.6996 58.2 48.3333C58.1968 46.9671 58.6624 45.82 59.5968 44.892C60.5312 43.964 61.6823 43.5 63.05 43.5C64.4177 43.5 65.5704 43.964 66.508 44.892C67.4457 45.82 67.9097 46.9671 67.9 48.3333C67.8903 49.6996 67.4247 50.8483 66.5032 51.7795C65.5817 52.7107 64.4306 53.1731 63.05 53.1667ZM19.5212 45.675C18.9554 37.1361 21.5421 29.8056 27.2812 23.6833C33.0204 17.5611 40.1742 14.5 48.7425 14.5C55.9367 14.5 62.2627 16.7749 67.7206 21.3247C73.1784 25.8744 76.4716 31.697 77.6 38.7923C70.2442 38.7086 63.4752 36.7333 57.293 32.8667C51.1109 29 46.3611 23.7639 43.0438 17.1583C41.7504 23.6028 39.0231 29.3432 34.8618 34.3795C30.7005 39.4158 25.587 43.181 19.5212 45.675Z" fill="url(#paint0_linear_188_8956)"/>
<defs>
<linearGradient id="paint0_linear_188_8956" x1="97" y1="79.3875" x2="28.3616" y2="-13.3736" gradientUnits="userSpaceOnUse">
<stop stop-color="#4085F2"/>
<stop offset="1" stop-color="#A26DFF"/>
</linearGradient>
</defs>
</svg>
