<svg width="51" height="87" viewBox="0 0 51 87" fill="none" xmlns="http://www.w3.org/2000/svg">
<path d="M23.9167 64.4357L39.2234 42.6413H25.5909L35.1575 9.47583H9.56668V47.3792H23.9167V64.4357ZM49.6271 44.2995L20.9271 85.4009C20.4488 86.1116 19.8317 86.5854 19.076 86.8223C18.3202 87.0592 17.582 87.0592 16.8613 86.8223C16.1406 86.5854 15.5427 86.1717 15.0675 85.581C14.5924 84.9903 14.3532 84.2591 14.35 83.3873V56.855H9.56668C6.93584 56.855 4.68448 55.928 2.8126 54.0738C0.940722 52.2197 0.00318889 49.9882 0 47.3792V9.47583C0 6.86998 0.937534 4.64 2.8126 2.7859C4.68767 0.931791 6.93903 0.00315861 9.56668 0H37.5492C40.1003 0 42.154 0.987066 43.7102 2.9612C45.2663 4.93533 45.7239 7.10688 45.083 9.47583L38.2667 33.1654H43.648C46.518 33.1654 48.6513 34.4289 50.0481 36.9558C51.4448 39.4826 51.3045 41.9306 49.6271 44.2995Z" fill="url(#paint0_linear_188_8962)"/>
<defs>
<linearGradient id="paint0_linear_188_8962" x1="51" y1="79.3875" x2="-16.7792" y2="31.2267" gradientUnits="userSpaceOnUse">
<stop stop-color="#4085F2"/>
<stop offset="1" stop-color="#A26DFF"/>
</linearGradient>
</defs>
</svg>
