<svg width="268" height="58" viewBox="0 0 268 58" fill="none" xmlns="http://www.w3.org/2000/svg">
<g clip-path="url(#clip0_188_9024)">
<path d="M0 1.91662C0 2.16238 2.60146 9.78102 5.84103 18.7759C9.0315 27.7709 12.222 36.9624 12.9582 39.2234L14.3326 43.2539H20.1736H26.0637L26.9473 41.1403C27.4381 40.0098 32.1011 30.8183 37.2549 20.6929C42.4088 10.5675 46.63 2.11323 46.63 1.86747C46.63 1.67086 44.274 1.47425 41.378 1.47425H36.0769L33.3773 7.27425C31.9048 10.42 28.4689 17.6454 25.7692 23.2488L20.8117 33.5217L15.8051 18.0878C13.0564 9.58442 10.7985 2.35899 10.7985 2.06408C10.7985 1.6217 9.22784 1.47425 5.39927 1.47425C2.35604 1.47425 0 1.67086 0 1.91662Z" fill="#FF0000"/>
<path d="M258.183 6.24246V11.0594H252.146C246.648 11.1086 245.912 11.2069 243.163 12.4848C238.059 14.795 234.917 19.0713 233.641 25.3136C232.414 31.2119 234.23 37.7001 237.96 40.7967C242.673 44.6797 250.575 44.778 255.484 40.9933L257.201 39.7153V41.4848V43.2543H261.57H265.938L266.233 38.1916C266.38 35.4391 266.724 27.4272 267.018 20.3984C267.313 13.3696 267.706 6.24246 267.853 4.57127L268.147 1.47466H263.141H258.183V6.24246ZM256.662 18.0391C257.79 18.334 257.79 18.3831 257.447 23.2492C257.005 29.4916 256.073 32.6865 254.06 34.7018C251.949 36.8153 249.593 37.2577 246.796 35.9797C244.047 34.8001 242.967 32.6865 242.967 28.656C242.967 25.3136 244.145 22.5119 246.305 20.4967C248.612 18.2848 253.422 17.1543 256.662 18.0391Z" fill="#FF0000"/>
<path d="M51.244 11.5512C45.6484 12.5342 45.7956 12.4359 45.452 15.7783C45.2557 17.4495 45.2066 18.8749 45.3048 18.9732C45.4029 19.1207 47.2681 18.7274 49.3788 18.1376C54.4835 16.7122 59.8828 16.6139 61.3062 17.8919C63.8586 20.202 61.8462 21.9715 54.6308 23.7902C45.9429 26.002 42.9487 27.7715 41.4271 31.7529C40.6908 33.6698 40.6908 34.358 41.1817 36.4715C42.4088 41.78 45.5011 43.7461 52.7165 43.7461C58.4593 43.7461 58.5575 43.6969 59.441 40.2563C59.8828 38.6342 60.03 37.2088 59.8337 37.0613C59.6374 36.963 58.4593 37.1105 57.2322 37.4054C52.8147 38.4868 49.1824 36.5207 50.4586 33.6698C51.1458 32.1952 52.6674 31.4088 57.3795 29.9834C59.3429 29.3936 61.3062 28.8037 61.748 28.6563C62.3861 28.4105 62.4352 29.0986 62.1407 34.2105C61.9443 37.4054 61.6498 40.7969 61.5026 41.6325L61.2571 43.2546H66.2147H71.1722V39.9122C71.1722 38.0936 71.4176 32.2936 71.7612 27.0342C72.252 18.3342 72.252 17.302 71.5158 15.7291C70.485 13.6156 68.2271 11.9936 65.2821 11.3546C62.337 10.6664 55.5143 10.7647 51.244 11.5512Z" fill="#FF0000"/>
<path d="M91.0022 11.502C89.8733 11.8461 88.1553 12.78 87.1736 13.5173L85.4066 14.8444L85.7011 13.3207L86.0447 11.7969H81.1363H76.2278L75.8843 19.5139C75.5897 26.1003 74.9026 37.3563 74.4608 41.78L74.3626 43.0088L79.3201 43.1563L84.2777 43.3037L84.6212 35.7834C85.1121 24.1342 86.241 21.0376 90.6095 19.3664C92.6711 18.58 93.0637 18.58 94.8799 19.219C98.9538 20.6444 99.1993 21.6766 98.5121 35.2427L98.1194 43.2546H102.979H107.887L108.231 31.2122C108.427 24.5766 108.476 18.4817 108.28 17.6461C107.838 15.4342 106.218 13.3698 103.911 12.1901C101.31 10.863 94.0945 10.4698 91.0022 11.502Z" fill="#FF0000"/>
<path d="M124.183 11.3542C118.588 12.4356 113.385 16.8102 111.372 22.0203C110.096 25.3627 109.851 31.5068 110.881 34.9966C111.716 37.8475 114.317 40.9932 117.017 42.3695C119.569 43.6966 124.821 44.0898 127.864 43.2542C129.092 42.9102 131.006 41.9763 132.135 41.1898L134.147 39.7153L133.755 42.6153C133.264 46.5475 132.38 48.4644 130.466 49.5949C127.423 51.4627 125.067 51.4136 114.268 49.3L112.943 49.0542L113.237 52.6424C113.385 54.6576 113.728 56.4271 114.023 56.5746C114.857 57.1644 122.907 58 127.374 58C132.871 58 136.798 56.9186 139.301 54.7559C142.541 52.0034 142.884 50.4305 143.375 37.3559C143.621 31.0153 144.013 22.8559 144.308 19.2186C144.602 15.6305 144.749 12.5339 144.602 12.4356C144.504 12.3373 142.442 11.8949 140.086 11.5017C135.325 10.7644 127.668 10.6661 124.183 11.3542ZM133.166 18.2356L135.031 18.7271L134.736 22.7576C134.098 31.261 132.822 34.3576 129.386 35.9305C126.883 37.061 125.901 37.061 123.398 35.9305C120.845 34.7508 119.766 32.5881 119.766 28.6559C119.815 23.6915 122.416 19.7593 126.686 18.4322C129.337 17.5966 130.76 17.5475 133.166 18.2356Z" fill="#FF0000"/>
<path d="M190.152 11.5512C184.557 12.5342 184.704 12.4359 184.36 15.7783C184.164 17.4495 184.115 18.8749 184.213 18.9732C184.311 19.1207 186.177 18.7274 188.287 18.1376C193.392 16.7122 198.791 16.6139 200.215 17.8919C202.767 20.202 200.755 21.9715 193.539 23.7902C184.851 26.002 181.857 27.7715 180.336 31.7529C179.599 33.6698 179.599 34.358 180.09 36.4715C181.317 41.78 184.41 43.7461 191.625 43.7461C197.368 43.7461 197.466 43.6969 198.349 40.2563C198.791 38.6342 198.938 37.2088 198.742 37.0613C198.546 36.963 197.368 37.1105 196.141 37.4054C191.723 38.4868 188.091 36.5207 189.367 33.6698C190.054 32.1952 191.576 31.4088 196.288 29.9834C198.251 29.3936 200.215 28.8037 200.656 28.6563C201.295 28.4105 201.344 29.0986 201.049 34.2105C200.853 37.4054 200.558 40.7969 200.411 41.6325L200.166 43.2546H205.123H210.081V39.9122C210.081 38.0936 210.326 32.2936 210.67 27.0342C211.16 18.3342 211.16 17.302 210.424 15.7291C209.393 13.6156 207.136 11.9936 204.19 11.3546C201.245 10.6664 194.423 10.7647 190.152 11.5512Z" fill="#FF0000"/>
<path d="M227.8 11.3048C227.162 11.5997 226.033 12.2386 225.248 12.8285L223.824 13.8115V12.8285C223.824 11.8454 223.53 11.7963 219.259 11.7963H214.645L214.351 23.4454C214.155 29.8844 213.86 36.9624 213.713 39.1742L213.369 43.2539H218.278H223.235L223.432 34.259C223.677 24.7725 223.971 23.298 226.131 21.037C227.996 19.0709 230.352 18.4319 232.708 19.1692C233.788 19.5132 234.721 19.7098 234.868 19.6115C234.966 19.4641 234.917 17.498 234.721 15.237L234.377 11.059L231.678 10.9607C230.205 10.9115 228.438 11.059 227.8 11.3048Z" fill="#FF0000"/>
<path d="M147.547 14.3521C147.4 15.7775 147.155 21.4792 146.958 27.0335C146.664 35.8318 146.713 37.3555 147.449 38.6826C149.314 42.3199 153.683 44.0403 159.966 43.5979C163.843 43.3521 166.199 42.5165 168.212 40.6487L169.292 39.6657L168.997 41.4843L168.703 43.2538H173.415H178.078L178.372 38.7318C178.765 31.703 179.648 14.1555 179.648 12.8776C179.648 11.8453 179.501 11.7962 174.985 11.7962C171.599 11.7962 170.322 11.9437 170.322 12.386C170.273 12.7301 170.077 16.6623 169.831 21.086C169.341 29.8352 168.555 32.5877 165.856 34.5538C163.99 35.8809 161.095 36.1267 159.033 35.0453C156.088 33.5216 155.842 32.4403 156.53 23.1504C156.824 18.6775 157.07 14.2538 157.07 13.3691V11.7962H152.456H147.842L147.547 14.3521Z" fill="#FF0000"/>
</g>
<defs>
<clipPath id="clip0_188_9024">
<rect width="268" height="58" fill="white"/>
</clipPath>
</defs>
</svg>
