<svg width="122" height="109" viewBox="0 0 122 109" fill="none" xmlns="http://www.w3.org/2000/svg">
<path d="M60.9999 30.875C58.755 30.9101 56.5268 31.2653 54.3831 31.9297C55.3747 33.6664 55.9026 35.6272 55.9165 37.625C55.9165 39.1762 55.6098 40.7123 55.0137 42.1454C54.4176 43.5786 53.5439 44.8808 52.4425 45.9777C51.3411 47.0746 50.0335 47.9447 48.5945 48.5383C47.1554 49.132 45.6131 49.4375 44.0554 49.4375C42.0494 49.4236 40.0805 48.8978 38.3367 47.9103C36.9609 52.6623 37.1212 57.7249 38.795 62.3811C40.4688 67.0373 43.5713 71.051 47.6628 73.8536C51.7544 76.6563 56.6277 78.1058 61.5924 77.9968C66.5572 77.8879 71.3616 76.226 75.3253 73.2467C79.289 70.2673 82.2109 66.1214 83.6772 61.3964C85.1434 56.6713 85.0797 51.6065 83.4951 46.9195C81.9105 42.2324 78.8852 38.1608 74.8479 35.2812C70.8105 32.4016 65.9658 30.8601 60.9999 30.875ZM121.263 51.4203C109.777 29.101 87.0371 14 60.9999 14C34.9626 14 12.2168 29.1116 0.736968 51.4224C0.252445 52.3769 0 53.4315 0 54.5011C0 55.5706 0.252445 56.6252 0.736968 57.5797C12.2232 79.899 34.9626 95 60.9999 95C87.0371 95 109.783 79.8884 121.263 57.5776C121.747 56.6231 122 55.5685 122 54.4989C122 53.4294 121.747 52.3748 121.263 51.4203ZM60.9999 84.875C40.1053 84.875 20.9496 73.2734 10.605 54.5C20.9496 35.7266 40.1031 24.125 60.9999 24.125C81.8966 24.125 101.05 35.7266 111.395 54.5C101.052 73.2734 81.8966 84.875 60.9999 84.875Z" fill="url(#paint0_linear_329_7989)"/>
<defs>
<linearGradient id="paint0_linear_329_7989" x1="122" y1="87.9125" x2="65.6883" y2="-14.8931" gradientUnits="userSpaceOnUse">
<stop stop-color="#4085F2"/>
<stop offset="1" stop-color="#A26DFF"/>
</linearGradient>
</defs>
</svg>
